<mxfile host="Electron" agent="Mozilla/5.0 (X11; Linux x86_64) AppleWebKit/537.36 (KHTML, like Gecko) draw.io/28.2.5 Chrome/138.0.7204.251 Electron/37.5.1 Safari/537.36" version="28.2.5">
  <diagram name="Seite-1" id="NoY9gzUj-63Kk3tP_tck">
    <mxGraphModel dx="1426" dy="840" grid="1" gridSize="10" guides="1" tooltips="1" connect="1" arrows="1" fold="1" page="1" pageScale="1" pageWidth="827" pageHeight="1169" math="0" shadow="0">
      <root>
        <mxCell id="0" />
        <mxCell id="1" parent="0" />
        <mxCell id="P5cJxwo3unp2Ga8hUJS3-3" value="HEADER" style="rounded=0;whiteSpace=wrap;html=1;" vertex="1" parent="1">
          <mxGeometry x="120" y="80" width="600" height="60" as="geometry" />
        </mxCell>
        <mxCell id="P5cJxwo3unp2Ga8hUJS3-4" value="CREATE NEW TODO (BUTTON)" style="rounded=0;whiteSpace=wrap;html=1;" vertex="1" parent="1">
          <mxGeometry x="120" y="140" width="600" height="60" as="geometry" />
        </mxCell>
        <mxCell id="P5cJxwo3unp2Ga8hUJS3-5" value="FILTER" style="rounded=0;whiteSpace=wrap;html=1;" vertex="1" parent="1">
          <mxGeometry x="120" y="200" width="600" height="60" as="geometry" />
        </mxCell>
        <mxCell id="P5cJxwo3unp2Ga8hUJS3-6" value="TODO-LIST" style="rounded=0;whiteSpace=wrap;html=1;" vertex="1" parent="1">
          <mxGeometry x="120" y="260" width="600" height="320" as="geometry" />
        </mxCell>
        <mxCell id="P5cJxwo3unp2Ga8hUJS3-9" value="" style="swimlane;startSize=0;" vertex="1" parent="1">
          <mxGeometry x="110" y="70" width="620" height="520" as="geometry" />
        </mxCell>
        <mxCell id="P5cJxwo3unp2Ga8hUJS3-10" value="Awsome Todo&#39;s" style="text;html=1;align=center;verticalAlign=middle;whiteSpace=wrap;rounded=0;" vertex="1" parent="1">
          <mxGeometry x="110" y="40" width="100" height="30" as="geometry" />
        </mxCell>
      </root>
    </mxGraphModel>
  </diagram>
</mxfile>
